<svg width="9" height="14" viewBox="0 0 9 14" fill="none" xmlns="http://www.w3.org/2000/svg">
<path d="M8.07794 8.59598C8.07794 9.34265 7.77928 9.99131 7.18194 10.542C6.58461 11.0926 5.81928 11.4333 4.88594 11.564V13.16H3.20594V11.564C2.30994 11.4426 1.57727 11.144 1.00794 10.668C0.447941 10.1826 0.111941 9.58065 -5.85541e-05 8.86198L2.40794 8.37198C2.52927 8.90398 2.79527 9.25398 3.20594 9.42198V7.47598C2.77661 7.36398 2.41261 7.24731 2.11394 7.12598C1.81527 7.00465 1.50727 6.83665 1.18994 6.62198C0.872608 6.39798 0.629941 6.11331 0.461941 5.76798C0.293941 5.42265 0.209941 5.01665 0.209941 4.54998C0.209941 3.82198 0.489941 3.18731 1.04994 2.64598C1.60994 2.10465 2.32861 1.75931 3.20594 1.60998V-2.02656e-05H4.88594V1.59598C5.75394 1.71731 6.46327 2.02065 7.01394 2.50598C7.56461 2.98198 7.89594 3.57931 8.00794 4.29798L5.61394 4.78798C5.50194 4.28398 5.25928 3.93865 4.88594 3.75198V5.51598C5.24061 5.59998 5.54394 5.68865 5.79594 5.78198C6.05728 5.86598 6.34194 5.99198 6.64994 6.15998C6.95794 6.31865 7.20528 6.50065 7.39194 6.70598C7.58794 6.91131 7.75128 7.17731 7.88194 7.50398C8.01261 7.82131 8.07794 8.18531 8.07794 8.59598ZM2.67394 4.40998C2.67394 4.66198 2.85127 4.87198 3.20594 5.03998V3.70998C2.85127 3.84998 2.67394 4.08331 2.67394 4.40998ZM4.88594 7.92398V9.47798C5.37128 9.34731 5.61394 9.07665 5.61394 8.66598C5.61394 8.35798 5.37128 8.11065 4.88594 7.92398Z" fill="#DEE2F7"/>
</svg>
