<svg width="20" height="20" viewBox="0 0 20 20" fill="none" xmlns="http://www.w3.org/2000/svg">
<g clip-path="url(#clip0_249_34317)">
<path opacity="0.2" d="M13.75 5.625H3.75C3.40482 5.625 3.125 5.90482 3.125 6.25V16.25C3.125 16.5952 3.40482 16.875 3.75 16.875H13.75C14.0952 16.875 14.375 16.5952 14.375 16.25V6.25C14.375 5.90482 14.0952 5.625 13.75 5.625Z" fill="#DEE2F7"/>
<path d="M10.625 9.375L16.875 3.125" stroke="#DEE2F7" stroke-width="1.64" stroke-linecap="round" stroke-linejoin="round"/>
<path d="M16.875 8.125L16.8742 3.12578L11.875 3.125" stroke="#DEE2F7" stroke-width="1.64" stroke-linecap="round" stroke-linejoin="round"/>
<path d="M14.375 10.625V16.25C14.375 16.4158 14.3092 16.5747 14.1919 16.6919C14.0747 16.8092 13.9158 16.875 13.75 16.875H3.75C3.58424 16.875 3.42527 16.8092 3.30806 16.6919C3.19085 16.5747 3.125 16.4158 3.125 16.25V6.25C3.125 6.08424 3.19085 5.92527 3.30806 5.80806C3.42527 5.69085 3.58424 5.625 3.75 5.625H9.375" stroke="#DEE2F7" stroke-width="1.64" stroke-linecap="round" stroke-linejoin="round"/>
</g>
<defs>
<clipPath id="clip0_249_34317">
<rect width="20" height="20" fill="white"/>
</clipPath>
</defs>
</svg>
