<svg width="28" height="28" viewBox="0 0 28 28" fill="none" xmlns="http://www.w3.org/2000/svg">
<path d="M0 14C0 6.26801 6.26801 0 14 0C21.732 0 28 6.26801 28 14C28 21.732 21.732 28 14 28C6.26801 28 0 21.732 0 14Z" fill="#DEE2F7" fill-opacity="0.16"/>
<g clip-path="url(#clip0_835_4683)">
<path opacity="0.2" d="M12.3196 18.3194L9.6809 15.6807L8.5309 18.845C8.49881 18.9323 8.49237 19.0269 8.51234 19.1177C8.53231 19.2085 8.57785 19.2916 8.64358 19.3574C8.70931 19.4231 8.79248 19.4686 8.88326 19.4886C8.97405 19.5086 9.06865 19.5021 9.1559 19.47L12.3196 18.3194Z" fill="#DEE2F7"/>
<path opacity="0.2" d="M10.8809 12.3806L15.6196 17.1193L18.1821 16.1881C18.2592 16.1601 18.328 16.1132 18.3821 16.0516C18.4362 15.9901 18.4739 15.9158 18.4917 15.8358C18.5095 15.7557 18.5067 15.6725 18.4837 15.5938C18.4608 15.5151 18.4183 15.4435 18.3602 15.3856L12.6146 9.64306C12.5567 9.58516 12.4851 9.5428 12.4065 9.5199C12.3279 9.49701 12.2447 9.49432 12.1648 9.51207C12.0848 9.52983 12.0107 9.56747 11.9491 9.6215C11.8876 9.67553 11.8407 9.74421 11.8127 9.82118L10.8809 12.3806Z" fill="#DEE2F7"/>
<path d="M8.53053 18.8449L11.8124 9.82115C11.8403 9.74406 11.8872 9.67526 11.9488 9.62114C12.0104 9.56702 12.0847 9.52933 12.1647 9.51157C12.2448 9.4938 12.328 9.49654 12.4067 9.51952C12.4854 9.5425 12.557 9.58498 12.6149 9.64303L18.3574 15.3855C18.4153 15.4435 18.4576 15.5151 18.4805 15.5938C18.5033 15.6724 18.506 15.7556 18.4881 15.8355C18.4703 15.9155 18.4326 15.9896 18.3785 16.0512C18.3244 16.1127 18.2557 16.1595 18.1787 16.1874L9.15491 19.4693C9.06777 19.5011 8.97334 19.5074 8.88275 19.4874C8.79216 19.4673 8.70918 19.4218 8.64358 19.3562C8.57798 19.2906 8.53248 19.2076 8.51246 19.1171C8.49243 19.0265 8.4987 18.932 8.53053 18.8449Z" stroke="#DEE2F7" stroke-linecap="round" stroke-linejoin="round"/>
<path d="M16.5 10.5C16.5 10.5 16.5 9 18 9C19.5 9 19.5 7.5 19.5 7.5" stroke="#DEE2F7" stroke-linecap="round" stroke-linejoin="round"/>
<path d="M15 7V8.5" stroke="#DEE2F7" stroke-linecap="round" stroke-linejoin="round"/>
<path d="M19.5 13L20.5 14" stroke="#DEE2F7" stroke-linecap="round" stroke-linejoin="round"/>
<path d="M19.5 11L21 10.5" stroke="#DEE2F7" stroke-linecap="round" stroke-linejoin="round"/>
<path d="M10.8809 12.3806L15.6196 17.1194" stroke="#DEE2F7" stroke-linecap="round" stroke-linejoin="round"/>
<path d="M12.3194 18.3194L9.68066 15.6807" stroke="#DEE2F7" stroke-linecap="round" stroke-linejoin="round"/>
</g>
<defs>
<clipPath id="clip0_835_4683">
<rect width="16" height="16" fill="white" transform="translate(6 6)"/>
</clipPath>
</defs>
</svg>
