<svg width="24" height="24" viewBox="0 0 24 24" fill="none" xmlns="http://www.w3.org/2000/svg">
<path d="M12 22C17.5228 22 22 17.5228 22 12C22 6.47715 17.5228 2 12 2C6.47715 2 2 6.47715 2 12C2 17.5228 6.47715 22 12 22Z" fill="#143EFF"/>
<path d="M12 15.5C10.07 15.5 8.5 13.93 8.5 12C8.5 10.07 10.07 8.5 12 8.5C13.76 8.5 15.22 9.805 15.46 11.5H18.98C18.725 7.87 15.69 5 12 5C8.14 5 5 8.14 5 12C5 15.86 8.14 19 12 19C15.69 19 18.725 16.13 18.98 12.5H15.46C15.22 14.195 13.76 15.5 12 15.5Z" fill="#DEE2F7"/>
</svg>
