<svg width="28" height="28" viewBox="0 0 28 28" fill="none" xmlns="http://www.w3.org/2000/svg">
<rect width="28" height="28" rx="14" fill="#DEE2F7"/>
<g clip-path="url(#clip0_835_4838)">
<path opacity="0.2" d="M10.477 15.5675C11.3039 15.4125 12.477 15.4794 14.0002 16.25C16.0158 17.2707 17.422 17.0569 18.2189 16.7282L19.4277 18.7425C19.4732 18.8183 19.4978 18.9048 19.499 18.9932C19.5002 19.0816 19.478 19.1688 19.4345 19.2458C19.391 19.3228 19.328 19.3869 19.2517 19.4315C19.1753 19.4762 19.0886 19.4998 19.0002 19.5H9.00015C8.91164 19.5001 8.8247 19.4766 8.74822 19.432C8.67174 19.3874 8.60847 19.3234 8.56487 19.2463C8.52126 19.1693 8.49889 19.0821 8.50004 18.9936C8.50119 18.905 8.52582 18.8184 8.5714 18.7425L10.4764 15.5675H10.477Z" fill="#141F52"/>
<path d="M11.5 8H16.5" stroke="#141F52" stroke-linecap="round" stroke-linejoin="round"/>
<path d="M15.5002 8V12.1962L19.4283 18.7425C19.4738 18.8183 19.4985 18.9049 19.4996 18.9934C19.5008 19.0818 19.4785 19.169 19.435 19.246C19.3914 19.323 19.3283 19.3871 19.2519 19.4317C19.1755 19.4764 19.0886 19.4999 19.0002 19.5H9.00015C8.91164 19.5 8.8247 19.4766 8.74822 19.432C8.67174 19.3874 8.60847 19.3233 8.56487 19.2463C8.52126 19.1693 8.49889 19.082 8.50004 18.9935C8.50119 18.905 8.52582 18.8184 8.5714 18.7425L12.5002 12.1962V8" stroke="#141F52" stroke-linecap="round" stroke-linejoin="round"/>
<path d="M10.4766 15.5675C11.3034 15.4125 12.4766 15.4794 13.9997 16.25C16.0153 17.2707 17.4216 17.0569 18.2184 16.7282" stroke="#141F52" stroke-linecap="round" stroke-linejoin="round"/>
</g>
<defs>
<clipPath id="clip0_835_4838">
<rect width="16" height="16" fill="white" transform="translate(6 6)"/>
</clipPath>
</defs>
</svg>
