<svg width="393" height="28" viewBox="0 0 393 28" fill="none" xmlns="http://www.w3.org/2000/svg">
<g id="Group 1" opacity="0.2">
<path id="Vector" d="M8.47708 26.3605C7.26508 26.3605 6.01259 26.2506 4.71671 26.0365C3.42083 25.8196 2.00924 25.4551 0.481951 24.9373C0.0422764 24.7753 -0.0965681 24.4919 0.0654171 24.0811L1.29188 20.5059C1.43072 20.1067 1.7142 19.9794 2.14808 20.124C3.28198 20.5724 4.39563 20.9108 5.49192 21.1422C6.58532 21.3736 7.57459 21.4893 8.45394 21.4893C9.47792 21.4893 10.3052 21.31 10.93 20.9455C11.5606 20.584 11.8788 20.0257 11.8788 19.2678C11.8788 18.7906 11.7081 18.3596 11.3697 17.972C11.0283 17.5872 10.5713 17.2257 9.9928 16.8843C9.42007 16.5372 8.77791 16.1901 8.06055 15.843C7.34318 15.4959 6.60846 15.1314 5.86217 14.7438C5.12167 14.3504 4.41009 13.9281 3.73323 13.4711C3.06214 13.0083 2.46048 12.4876 1.92825 11.9091C1.4018 11.3248 0.985262 10.6566 0.678647 9.90739C0.377817 9.15242 0.227402 8.28175 0.227402 7.29248C0.227402 5.9966 0.464595 4.89452 0.944766 3.98335C1.42204 3.07508 2.06709 2.33457 2.87702 1.76184C3.69273 1.18332 4.61836 0.763893 5.65391 0.500667C6.69524 0.231655 7.7655 0.0957031 8.87047 0.0957031C9.5242 0.0957031 10.2358 0.14777 10.9994 0.246118C11.7631 0.338681 12.5383 0.477526 13.3251 0.662652C14.1176 0.847778 14.89 1.0734 15.6391 1.33373C16.0615 1.47258 16.1974 1.75605 16.0441 2.17837L14.9912 5.58007C14.835 6.00528 14.5544 6.14123 14.1466 5.98503C13.3135 5.66106 12.4457 5.40651 11.5432 5.22139C10.6407 5.03626 9.80189 4.9437 9.03246 4.9437C8.4684 4.9437 7.95641 5.01023 7.4936 5.14039C7.03657 5.26477 6.67499 5.47015 6.40598 5.75362C6.14276 6.03131 6.01259 6.41024 6.01259 6.88752C6.01259 7.34455 6.14565 7.74951 6.41755 8.10241C6.68656 8.4582 7.05971 8.79374 7.53988 9.10903C8.02584 9.41854 8.587 9.72805 9.22915 10.0347C9.86842 10.3442 10.5511 10.671 11.2771 11.0181C12.0408 11.3884 12.7957 11.8049 13.5449 12.2678C14.2999 12.7248 14.9912 13.2599 15.616 13.876C16.2408 14.4864 16.7383 15.2124 17.1086 16.0513C17.4846 16.893 17.6755 17.8765 17.6755 19.0017C17.6755 20.0893 17.502 21.0439 17.1549 21.8596C16.8135 22.6695 16.3478 23.3638 15.7548 23.9423C15.159 24.515 14.4705 24.9807 13.6837 25.3423C12.9027 25.6981 12.0697 25.9555 11.1845 26.1175C10.2965 26.2795 9.39403 26.3605 8.47708 26.3605Z" fill="#DEE2F7"/>
<path id="Vector_2" d="M54.5282 0.732861L65.923 25.4492C66.0175 25.6944 66.0175 25.8924 65.923 26.0402C65.8284 26.1909 65.6541 26.2648 65.4029 26.2648H60.4975C60.1103 26.2648 59.8503 26.0875 59.7173 25.7329L58.8345 23.5351C58.6823 23.1561 58.315 22.9078 57.9066 22.9078H49.4595C49.0511 22.9078 48.6838 23.1561 48.5316 23.5351L47.6488 25.7329C47.5128 26.0875 47.2528 26.2648 46.8686 26.2648H41.9632C41.7179 26.2648 41.5436 26.1909 41.4431 26.0402C41.3485 25.8924 41.3544 25.6944 41.4667 25.4492L52.8497 0.732861C53.0684 0.245272 53.3462 0 53.6771 0C54.014 0 54.2977 0.245272 54.5282 0.732861ZM54.6181 12.9025C54.2837 12.0621 53.0942 12.0621 52.7598 12.9025L51.1016 17.07C50.8403 17.7266 51.324 18.4397 52.0307 18.4397H55.3472C56.0539 18.4397 56.5376 17.7266 56.2763 17.07L54.6181 12.9025Z" fill="#DEE2F7"/>
<path id="Vector_3" d="M103.882 27.0309H90.7253C90.2633 27.0309 90.0322 26.7968 90.0322 26.3256V1.47137C90.0322 1.00323 90.2633 0.766113 90.7253 0.766113H95.2973C95.7655 0.766113 96.0026 1.00323 96.0026 1.47137V20.8631C96.0026 21.4153 96.4503 21.8631 97.0026 21.8631H103.882C104.344 21.8631 104.575 22.1002 104.575 22.5683V26.3256C104.575 26.7968 104.344 27.0309 103.882 27.0309Z" fill="#DEE2F7"/>
<path id="Vector_4" d="M141.495 0.732861L152.89 25.4492C152.984 25.6944 152.984 25.8924 152.89 26.0402C152.795 26.1909 152.621 26.2648 152.37 26.2648H147.464C147.077 26.2648 146.817 26.0875 146.684 25.7329L145.801 23.5351C145.649 23.1561 145.282 22.9078 144.873 22.9078H136.426C136.018 22.9078 135.651 23.1561 135.498 23.5351L134.616 25.7329C134.48 26.0875 134.22 26.2648 133.835 26.2648H128.93C128.685 26.2648 128.51 26.1909 128.41 26.0402C128.315 25.8924 128.321 25.6944 128.434 25.4492L139.817 0.732861C140.035 0.245272 140.313 0 140.644 0C140.981 0 141.264 0.245272 141.495 0.732861ZM141.585 12.9025C141.251 12.0621 140.061 12.0621 139.727 12.9025L138.068 17.07C137.807 17.7266 138.291 18.4397 138.998 18.4397H142.314C143.021 18.4397 143.504 17.7266 143.243 17.07L141.585 12.9025Z" fill="#DEE2F7"/>
<path id="Vector_5" d="M181.639 26.3605H177.294C176.843 26.3605 176.617 26.132 176.617 25.6719V1.28773C176.617 0.860357 176.7 0.545761 176.866 0.338008C177.033 0.133224 177.24 0.0590257 177.496 0.112448C177.748 0.168838 178.009 0.370655 178.279 0.717898L188.484 13.8758C188.884 14.3914 189.662 14.3922 190.063 13.8775L200.313 0.717898C200.58 0.385494 200.841 0.192581 201.096 0.136191C201.358 0.0827689 201.571 0.153998 201.737 0.34988C201.904 0.548728 201.987 0.860357 201.987 1.28773V25.6719C201.987 26.132 201.755 26.3605 201.298 26.3605H196.965C196.505 26.3605 196.276 26.132 196.276 25.6719V16.8848C196.276 15.9426 195.092 15.5232 194.499 16.2554L189.747 22.1223C189.438 22.52 189.121 22.52 188.797 22.1223L184.105 16.3112C183.513 15.5775 182.327 15.9964 182.327 16.9394V25.6719C182.327 26.132 182.096 26.3605 181.639 26.3605Z" fill="#DEE2F7"/>
<path id="Vector_6" d="M239.191 0.732861L250.586 25.4492C250.681 25.6944 250.681 25.8924 250.586 26.0402C250.492 26.1909 250.317 26.2648 250.066 26.2648H245.161C244.773 26.2648 244.513 26.0875 244.38 25.7329L243.498 23.5351C243.345 23.1561 242.978 22.9078 242.57 22.9078H234.123C233.714 22.9078 233.347 23.1561 233.195 23.5351L232.312 25.7329C232.176 26.0875 231.916 26.2648 231.532 26.2648H226.626C226.381 26.2648 226.207 26.1909 226.106 26.0402C226.012 25.8924 226.018 25.6944 226.13 25.4492L237.513 0.732861C237.731 0.245272 238.009 0 238.34 0C238.677 0 238.961 0.245272 239.191 0.732861ZM239.281 12.9025C238.947 12.0621 237.757 12.0621 237.423 12.9025L235.765 17.07C235.503 17.7266 235.987 18.4397 236.694 18.4397H240.01C240.717 18.4397 241.201 17.7266 240.939 17.07L239.281 12.9025Z" fill="#DEE2F7"/>
<path id="Vector_7" d="M279.187 25.8163H274.976C274.534 25.8163 274.312 25.5924 274.312 25.1415V1.25651C274.312 0.683523 274.47 0.319953 274.79 0.162892C275.115 1.28895e-05 275.499 0.133806 275.941 0.558455L288.441 13.007C289.072 13.635 290.147 13.1883 290.147 12.2984V1.36122C290.147 0.913298 290.368 0.686431 290.81 0.686431H295.021C295.469 0.686431 295.696 0.913298 295.696 1.36122V25.223C295.696 25.6127 295.609 25.9036 295.44 26.1072C295.277 26.3079 295.059 26.3893 294.789 26.3515C294.524 26.3108 294.23 26.1334 293.904 25.8163L281.553 13.2194C280.926 12.5799 279.839 13.0239 279.839 13.9195V25.1415C279.839 25.5924 279.621 25.8163 279.187 25.8163Z" fill="#DEE2F7"/>
<path id="Vector_8" d="M328.166 27.0309H320.214C319.752 27.0309 319.521 26.7968 319.521 26.3256V1.47137C319.521 1.00323 319.752 0.766113 320.214 0.766113H328.166C331.309 0.766113 333.93 1.28594 336.021 2.32254C338.119 3.36219 339.687 4.85783 340.727 6.80944C341.773 8.7641 342.295 11.1322 342.295 13.9107C342.295 16.6344 341.779 18.9782 340.751 20.9389C339.73 22.9027 338.173 24.4105 336.082 25.4623C333.99 26.508 331.352 27.0309 328.166 27.0309ZM326.552 5.93395C325.999 5.93395 325.552 6.38167 325.552 6.93395V20.8631C325.552 21.4153 325.999 21.8631 326.552 21.8631H328.166C330.847 21.8631 332.878 21.1639 334.258 19.7594C335.635 18.3489 336.325 16.373 336.325 13.8255C336.325 11.2903 335.635 9.33865 334.258 7.97677C332.878 6.61489 330.847 5.93395 328.166 5.93395H326.552Z" fill="#DEE2F7"/>
<path id="Vector_9" d="M380.279 0.781163L392.425 27.1265C392.525 27.3879 392.525 27.599 392.425 27.7565C392.324 27.9171 392.138 27.9959 391.87 27.9959H386.641C386.229 27.9959 385.952 27.8069 385.81 27.4289L384.852 25.0449C384.7 24.6659 384.333 24.4176 383.924 24.4176H374.831C374.423 24.4176 374.056 24.6659 373.904 25.0449L372.946 27.4289C372.801 27.8069 372.524 27.9959 372.114 27.9959H366.886C366.624 27.9959 366.438 27.9171 366.331 27.7565C366.23 27.599 366.237 27.3879 366.356 27.1265L378.49 0.781163C378.723 0.261438 379.019 0 379.372 0C379.731 0 380.033 0.261438 380.279 0.781163ZM380.313 13.599C379.979 12.7586 378.789 12.7586 378.455 13.599L376.59 18.2854C376.329 18.942 376.813 19.6551 377.52 19.6551H381.249C381.956 19.6551 382.439 18.942 382.178 18.2854L380.313 13.599Z" fill="#DEE2F7"/>
</g>
</svg>
