<svg width="16" height="16" viewBox="0 0 16 16" fill="none" xmlns="http://www.w3.org/2000/svg">
<g id="CaretDoubleLeft">
<path id="Vector" opacity="0.2" d="M12.5 3V13L7.5 8L12.5 3Z" fill="#DEE2F7"/>
<path id="Vector_2" d="M12.6916 2.53813C12.6003 2.50023 12.4998 2.49027 12.4027 2.50952C12.3057 2.52877 12.2166 2.57635 12.1466 2.64625L7.14664 7.64625C7.10015 7.69269 7.06328 7.74783 7.03811 7.80853C7.01295 7.86923 7 7.9343 7 8C7 8.06571 7.01295 8.13077 7.03811 8.19147C7.06328 8.25217 7.10015 8.30732 7.14664 8.35375L12.1466 13.3538C12.2166 13.4238 12.3057 13.4714 12.4027 13.4908C12.4998 13.5101 12.6004 13.5002 12.6918 13.4623C12.7832 13.4244 12.8613 13.3603 12.9163 13.278C12.9712 13.1957 13.0005 13.099 13.0004 13V3C13.0004 2.90111 12.971 2.80445 12.9161 2.72224C12.8611 2.64002 12.783 2.57595 12.6916 2.53813ZM12.0004 11.7931L8.20727 8L12.0004 4.20688V11.7931ZM7.85414 12.6463C7.9006 12.6927 7.93745 12.7479 7.96259 12.8086C7.98773 12.8693 8.00067 12.9343 8.00067 13C8.00067 13.0657 7.98773 13.1308 7.96259 13.1915C7.93745 13.2521 7.9006 13.3073 7.85414 13.3538C7.80769 13.4002 7.75254 13.4371 7.69184 13.4622C7.63115 13.4873 7.56609 13.5003 7.50039 13.5003C7.4347 13.5003 7.36964 13.4873 7.30895 13.4622C7.24825 13.4371 7.1931 13.4002 7.14664 13.3538L2.14664 8.35375C2.10016 8.30732 2.06328 8.25217 2.03811 8.19147C2.01295 8.13077 2 8.06571 2 8C2 7.9343 2.01295 7.86923 2.03811 7.80853C2.06328 7.74783 2.10016 7.69269 2.14664 7.64625L7.14664 2.64625C7.24046 2.55243 7.36771 2.49973 7.50039 2.49973C7.63308 2.49973 7.76032 2.55243 7.85414 2.64625C7.94796 2.74007 8.00067 2.86732 8.00067 3C8.00067 3.13269 7.94796 3.25993 7.85414 3.35375L3.20727 8L7.85414 12.6463Z" fill="#DEE2F7"/>
</g>
</svg>
