<svg width="309" height="20" viewBox="0 0 309 20" fill="none" xmlns="http://www.w3.org/2000/svg">
<g id="Group 1">
<path id="Vector" d="M6.28399 19.5297C5.38555 19.5297 4.45708 19.4483 3.49646 19.2896C2.53583 19.1288 1.48943 18.8586 0.357266 18.4748C0.0313391 18.3547 -0.0715851 18.1445 0.0484932 17.8401L0.957657 15.1898C1.06058 14.8939 1.27072 14.7995 1.59236 14.9067C2.43291 15.2391 3.25844 15.49 4.07112 15.6615C4.88165 15.833 5.61498 15.9188 6.26683 15.9188C7.0259 15.9188 7.63916 15.7859 8.10232 15.5157C8.56977 15.2477 8.80563 14.8338 8.80563 14.272C8.80563 13.9182 8.67912 13.5987 8.42824 13.3114C8.17522 13.0262 7.83643 12.7582 7.40758 12.5052C6.98302 12.2478 6.50699 11.9905 5.97522 11.7332C5.44344 11.4759 4.8988 11.2057 4.34558 10.9184C3.79665 10.6268 3.26917 10.3137 2.76741 9.97494C2.26994 9.63186 1.82394 9.24589 1.42939 8.81704C1.03914 8.3839 0.730367 7.88858 0.503075 7.33322C0.280073 6.77357 0.168571 6.12814 0.168571 5.39481C0.168571 4.43418 0.3444 3.61722 0.700347 2.94178C1.05415 2.26849 1.53232 1.71956 2.13271 1.295C2.73739 0.866146 3.42355 0.555229 4.19119 0.360102C4.96313 0.160686 5.7565 0.059906 6.57561 0.059906C7.06021 0.059906 7.5877 0.0985029 8.15378 0.171407C8.71986 0.240023 9.29452 0.342948 9.87776 0.48018C10.4653 0.617412 11.0378 0.784664 11.5932 0.977647C11.9062 1.08057 12.007 1.29071 11.8934 1.60377L11.1129 4.12541C10.9971 4.44062 10.7891 4.5414 10.4867 4.42561C9.86918 4.18545 9.22591 3.99676 8.5569 3.85952C7.88789 3.72229 7.26606 3.65368 6.69569 3.65368C6.27756 3.65368 5.89802 3.70299 5.55494 3.79948C5.21615 3.89169 4.94812 4.04393 4.7487 4.25407C4.55357 4.45992 4.45708 4.74081 4.45708 5.09461C4.45708 5.43341 4.55572 5.7336 4.75728 5.9952C4.95669 6.25894 5.2333 6.50768 5.58925 6.7414C5.94948 6.97084 6.36547 7.20027 6.84149 7.42756C7.31537 7.657 7.82142 7.8993 8.35963 8.15661C8.92571 8.43107 9.48536 8.73985 10.0407 9.08293C10.6004 9.42172 11.1129 9.81841 11.576 10.2751C12.0392 10.7276 12.408 11.2658 12.6824 11.8876C12.9612 12.5116 13.1027 13.2406 13.1027 14.0748C13.1027 14.881 12.9741 15.5886 12.7168 16.1933C12.4637 16.7937 12.1185 17.3083 11.6789 17.7371C11.2372 18.1617 10.7269 18.5069 10.1436 18.775C9.5647 19.0387 8.94715 19.2295 8.29101 19.3496C7.63272 19.4697 6.96372 19.5297 6.28399 19.5297Z" fill="#5170FF"/>
<path id="Vector_2" d="M42.8514 0.543262L51.2983 18.8652C51.3684 19.047 51.3684 19.1938 51.2983 19.3033C51.2282 19.4151 51.099 19.4698 50.9128 19.4698H47.2764C46.9894 19.4698 46.7967 19.3384 46.6981 19.0755L46.1089 17.6086C45.9567 17.2297 45.5893 16.9813 45.1809 16.9813H39.2689C38.8606 16.9813 38.4932 17.2297 38.341 17.6086L37.7518 19.0755C37.651 19.3384 37.4582 19.4698 37.1735 19.4698H33.5371C33.3553 19.4698 33.2261 19.4151 33.1516 19.3033C33.0815 19.1938 33.0859 19.047 33.1691 18.8652L41.6072 0.543262C41.7693 0.181818 41.9752 0 42.2206 0C42.4703 0 42.6806 0.181818 42.8514 0.543262ZM43.1585 10.1686C42.8241 9.32825 41.6346 9.32825 41.3002 10.1686L40.4523 12.2995C40.191 12.9561 40.6748 13.6692 41.3815 13.6692H43.0772C43.7839 13.6692 44.2676 12.9561 44.0063 12.2995L43.1585 10.1686Z" fill="#5170FF"/>
<path id="Vector_3" d="M81.6173 20H71.8644C71.5218 20 71.3506 19.8265 71.3506 19.4772V1.05295C71.3506 0.705921 71.5218 0.530151 71.8644 0.530151H75.2536C75.6006 0.530151 75.7764 0.705921 75.7764 1.05295V15.1691C75.7764 15.7214 76.2241 16.1691 76.7764 16.1691H81.6173C81.9598 16.1691 82.1311 16.3449 82.1311 16.6919V19.4772C82.1311 19.8265 81.9598 20 81.6173 20Z" fill="#5170FF"/>
<path id="Vector_4" d="M111.88 0.543262L120.327 18.8652C120.397 19.047 120.397 19.1938 120.327 19.3033C120.257 19.4151 120.127 19.4698 119.941 19.4698H116.305C116.018 19.4698 115.825 19.3384 115.726 19.0755L115.137 17.6086C114.985 17.2297 114.618 16.9813 114.209 16.9813H108.297C107.889 16.9813 107.522 17.2297 107.369 17.6086L106.78 19.0755C106.679 19.3384 106.487 19.4698 106.202 19.4698H102.565C102.384 19.4698 102.254 19.4151 102.18 19.3033C102.11 19.1938 102.114 19.047 102.197 18.8652L110.636 0.543262C110.798 0.181818 111.004 0 111.249 0C111.499 0 111.709 0.181818 111.88 0.543262ZM112.187 10.1686C111.852 9.32825 110.663 9.32825 110.328 10.1686L109.481 12.2995C109.219 12.9561 109.703 13.6692 110.41 13.6692H112.105C112.812 13.6692 113.296 12.9561 113.035 12.2995L112.187 10.1686Z" fill="#5170FF"/>
<path id="Vector_5" d="M144.101 19.5519H140.881C140.546 19.5519 140.379 19.3825 140.379 19.0415V0.965702C140.379 0.648892 140.441 0.415685 140.564 0.26168C140.687 0.109875 140.841 0.0548732 141.03 0.0944747C141.217 0.136276 141.411 0.285881 141.611 0.543289L148.972 10.0341C149.371 10.5496 150.15 10.5505 150.551 10.0358L157.944 0.543289C158.142 0.296881 158.336 0.153877 158.525 0.112075C158.719 0.0724737 158.877 0.125275 159 0.27048C159.124 0.417885 159.185 0.648892 159.185 0.965702V19.0415C159.185 19.3825 159.014 19.5519 158.675 19.5519H155.463C155.122 19.5519 154.952 19.3825 154.952 19.0415V13.2581C154.952 12.3158 153.768 11.8965 153.175 12.6287L150.112 16.4102C149.883 16.705 149.648 16.705 149.408 16.4102L146.39 12.6722C145.797 11.9385 144.612 12.3573 144.612 13.3004V19.0415C144.612 19.3825 144.44 19.5519 144.101 19.5519Z" fill="#5170FF"/>
<path id="Vector_6" d="M188.934 0.543262L197.381 18.8652C197.451 19.047 197.451 19.1938 197.381 19.3033C197.311 19.4151 197.182 19.4698 196.996 19.4698H193.359C193.072 19.4698 192.88 19.3384 192.781 19.0755L192.192 17.6086C192.04 17.2297 191.672 16.9813 191.264 16.9813H185.352C184.944 16.9813 184.576 17.2297 184.424 17.6086L183.835 19.0755C183.734 19.3384 183.541 19.4698 183.256 19.4698H179.62C179.438 19.4698 179.309 19.4151 179.235 19.3033C179.164 19.1938 179.169 19.047 179.252 18.8652L187.69 0.543262C187.852 0.181818 188.058 0 188.304 0C188.553 0 188.764 0.181818 188.934 0.543262ZM189.241 10.1686C188.907 9.32825 187.718 9.32825 187.383 10.1686L186.535 12.2995C186.274 12.9561 186.758 13.6692 187.464 13.6692H189.16C189.867 13.6692 190.351 12.9561 190.089 12.2995L189.241 10.1686Z" fill="#5170FF"/>
<path id="Vector_7" d="M221.047 19.1624H217.925C217.597 19.1624 217.434 18.9964 217.434 18.6622V0.956471C217.434 0.531723 217.55 0.262212 217.787 0.145784C218.029 0.0250435 218.313 0.124223 218.641 0.439011L227.466 9.22752C228.096 9.85549 229.171 9.40888 229.171 8.51896V1.03409C229.171 0.702053 229.335 0.533879 229.663 0.533879H232.785C233.117 0.533879 233.285 0.702053 233.285 1.03409V18.7226C233.285 19.0115 233.22 19.2271 233.095 19.378C232.975 19.5268 232.813 19.5872 232.612 19.5591C232.416 19.529 232.198 19.3974 231.957 19.1624L223.244 10.2767C222.617 9.63716 221.53 10.0811 221.53 10.9768V18.6622C221.53 18.9964 221.368 19.1624 221.047 19.1624Z" fill="#5170FF"/>
<path id="Vector_8" d="M259.694 20H253.799C253.456 20 253.285 19.8265 253.285 19.4772V1.05295C253.285 0.705921 253.456 0.530151 253.799 0.530151H259.694C262.024 0.530151 263.967 0.915492 265.517 1.68392C267.072 2.4546 268.235 3.5633 269.005 5.01001C269.78 6.45898 270.168 8.21442 270.168 10.2741C270.168 12.2932 269.785 14.0306 269.023 15.4841C268.266 16.9398 267.112 18.0575 265.562 18.8372C264.012 19.6124 262.056 20 259.694 20ZM258.756 4.36102C258.204 4.36102 257.756 4.80874 257.756 5.36102V15.1691C257.756 15.7214 258.204 16.1691 258.756 16.1691H259.694C261.682 16.1691 263.187 15.6508 264.21 14.6097C265.231 13.5641 265.742 12.0994 265.742 10.211C265.742 8.3316 265.231 6.88489 264.21 5.87534C263.187 4.86579 261.682 4.36102 259.694 4.36102H258.756Z" fill="#5170FF"/>
<path id="Vector_9" d="M299.917 0.543262L308.364 18.8652C308.434 19.047 308.434 19.1938 308.364 19.3033C308.294 19.4151 308.164 19.4698 307.978 19.4698H304.342C304.055 19.4698 303.862 19.3384 303.764 19.0755L303.174 17.6086C303.022 17.2297 302.655 16.9813 302.246 16.9813H296.334C295.926 16.9813 295.559 17.2297 295.406 17.6086L294.817 19.0755C294.716 19.3384 294.524 19.4698 294.239 19.4698H290.603C290.421 19.4698 290.291 19.4151 290.217 19.3033C290.147 19.1938 290.151 19.047 290.235 18.8652L298.673 0.543262C298.835 0.181818 299.041 0 299.286 0C299.536 0 299.746 0.181818 299.917 0.543262ZM300.224 10.1686C299.89 9.32825 298.7 9.32825 298.366 10.1686L297.518 12.2995C297.256 12.9561 297.74 13.6692 298.447 13.6692H300.143C300.849 13.6692 301.333 12.9561 301.072 12.2995L300.224 10.1686Z" fill="#5170FF"/>
</g>
</svg>
