<svg width="25" height="24" viewBox="0 0 25 24" fill="none" xmlns="http://www.w3.org/2000/svg">
<g clip-path="url(#clip0_249_34405)">
<path d="M23.2643 23.1784L17.9019 21.5817L13.8581 23.9991L11.0365 23.9979L6.99022 21.5817L1.6303 23.1784L0 17.6743L1.63047 11.5657L0 6.40109L1.63047 0L10.0057 5.00381H14.8889L23.2643 0L24.8948 6.40109L23.2643 11.5657L24.8948 17.6743L23.2643 23.1784Z" fill="#FF5C16"/>
<path d="M1.63135 0L10.0067 5.00732L9.67378 8.44378L1.63135 0ZM6.99145 17.6766L10.6765 20.4838L6.99145 21.5816V17.6766ZM10.382 13.0355L9.67378 8.44624L5.14022 11.5671L5.13777 11.5659V11.5681L5.1518 14.7805L6.99022 13.0357L10.382 13.0355ZM23.2641 0L14.8887 5.00732L15.2206 8.44378L23.2641 0ZM17.9042 17.6766L14.2189 20.4838L17.9042 21.5816V17.6766ZM19.7566 11.568V11.5657L19.7556 11.5669L15.2218 8.44624L14.5137 13.0355H17.904L19.7437 14.7802L19.7566 11.568Z" fill="#FF5C16"/>
<path d="M6.9904 21.5817L1.63047 23.1783L0 17.6767H6.9904V21.5817ZM10.3809 13.0344L11.4047 19.6692L9.98571 15.9801L5.14969 14.7803L6.98917 13.0346L10.3809 13.0344ZM17.9042 21.5817L23.2643 23.1783L24.8948 17.6765H17.9042C17.9042 17.6767 17.9042 21.5817 17.9042 21.5817ZM14.5138 13.0344L13.49 19.6692L14.9089 15.9801L19.7452 14.7803L17.9045 13.0346L14.5138 13.0344Z" fill="#E34807"/>
<path d="M0 17.6744L1.63047 11.5658H5.13672L5.14952 14.7792L9.98606 15.9791L11.4049 19.668L10.6755 20.4803L6.9904 17.6732H0V17.6744ZM24.8948 17.6744L23.2643 11.5658H19.7579L19.7451 14.7792L14.9089 15.9791L13.4899 19.668L14.2191 20.4803L17.9044 17.6732H24.8948V17.6744ZM14.8889 5.00391H10.0057L9.67413 8.44037L11.4051 19.6643H13.49L15.222 8.44037L14.8889 5.00391Z" fill="#FF8D5D"/>
<path d="M1.63047 0L0 6.40109L1.63047 11.5657H5.13672L9.67273 8.44396L1.63047 0ZM9.36764 14.3669H7.77925L6.91448 15.2147L9.98711 15.9763L9.36764 14.3657V14.3669ZM23.2643 0L24.8948 6.40109L23.2643 11.5657H19.7579L15.222 8.44396L23.2643 0ZM15.5294 14.3669H17.1201L17.9848 15.2157L14.9087 15.979L15.5294 14.3657V14.3669ZM13.8568 21.8095L14.2193 20.4827L13.4899 19.6704H11.4033L10.6741 20.4827L11.0363 21.8095" fill="#661800"/>
<path d="M13.8568 21.8093V24.0002H11.0366V21.8093H13.8568Z" fill="#C0C4CD"/>
<path d="M6.9917 21.5792L11.039 23.9989V21.8081L10.6766 20.4814L6.9917 21.5792ZM17.9044 21.5792L13.8569 23.9989V21.8081L14.2193 20.4814L17.9044 21.5792Z" fill="#E7EBF6"/>
</g>
<defs>
<clipPath id="clip0_249_34405">
<rect width="24.8981" height="24" fill="white"/>
</clipPath>
</defs>
</svg>
