<svg width="88" height="28" viewBox="0 0 88 28" fill="none" xmlns="http://www.w3.org/2000/svg">
<g clip-path="url(#clip0_249_34156)">
<path d="M26.7921 16.891C26.1445 19.5022 24.7369 21.8626 22.7475 23.6736C20.758 25.4846 18.2761 26.6648 15.6157 27.0648C12.9553 27.4647 10.2361 27.0666 7.80207 25.9207C5.36804 24.7748 3.32862 22.9326 1.94186 20.6273C0.555099 18.322 -0.116671 15.6571 0.0115513 12.9699C0.139774 10.2827 1.06223 7.69391 2.66218 5.5311C4.26214 3.3683 6.4677 1.72869 8.99978 0.819753C11.5319 -0.0891866 14.2767 -0.22661 16.8869 0.424872C20.3825 1.29734 23.3889 3.52141 25.2461 6.60871C27.1032 9.696 27.6593 13.3941 26.7921 16.891Z" fill="#26A17B"/>
<g opacity="0.24">
<path d="M13.5977 27.1957C12.4883 27.1879 11.3838 27.0452 10.3088 26.7708C7.70629 26.1152 5.35602 24.7041 3.55398 22.7153C1.75193 20.7265 0.578702 18.2489 0.182054 15.5946C-0.214593 12.9403 0.183082 10.228 1.32499 7.79923C2.4669 5.3705 4.30198 3.33399 6.59909 1.94619C8.39559 0.865361 10.4177 0.214582 12.5074 0.0447098C14.597 -0.125162 16.6977 0.190474 18.6452 0.966953C20.5927 1.74343 22.3342 2.95972 23.7338 4.52078C25.1333 6.08184 26.1529 7.94537 26.7129 9.96577C27.2729 11.9862 27.3582 14.1087 26.962 16.1675C26.5658 18.2263 25.6989 20.1656 24.4291 21.8338C23.1592 23.5021 21.5208 24.8541 19.6418 25.7843C17.7629 26.7144 15.6943 27.1975 13.5977 27.1957ZM13.5977 2.5496C11.1333 2.55151 8.74032 3.37732 6.79923 4.8957C4.85814 6.41407 3.48042 8.53785 2.88517 10.9293C2.49456 12.3497 2.39196 13.8339 2.5834 15.2945C2.77484 16.7552 3.25646 18.1628 3.99992 19.4346C4.74338 20.7064 5.73367 21.8166 6.91253 22.7C8.0914 23.5834 9.43503 24.2222 10.8644 24.5787C12.2937 24.9352 13.78 25.0022 15.2356 24.7758C16.6913 24.5495 18.0869 24.0343 19.3406 23.2606C20.5942 22.4869 21.6804 21.4703 22.5353 20.2707C23.3903 19.071 23.9967 17.7124 24.3188 16.275C24.7196 14.6465 24.7454 12.9483 24.3943 11.3085C24.0433 9.66858 23.3245 8.12981 22.2921 6.80818C21.2598 5.48655 19.9408 4.41655 18.4348 3.67886C16.9287 2.94117 15.2748 2.55504 13.5977 2.5496Z" fill="#DEE2F7"/>
</g>
<g opacity="0.3">
<path d="M26.3842 8.97883L0.174265 15.782C-0.366933 12.4385 0.359127 9.01346 2.21033 6.17714C4.06154 3.34082 6.90462 1.29746 10.1831 0.447009C13.4616 -0.403439 16.9394 0.000247825 19.9359 1.57906C22.9324 3.15786 25.2319 5.79813 26.3842 8.98308V8.97883Z" fill="#DEE2F7"/>
</g>
<path d="M24.3148 16.2749C23.7858 18.3951 22.64 20.3108 21.0222 21.7798C19.4045 23.2488 17.3874 24.205 15.2262 24.5276C13.0649 24.8502 10.8565 24.5247 8.88031 23.5921C6.90409 22.6596 5.24878 21.162 4.12372 19.2887C2.99866 17.4154 2.45439 15.2505 2.55972 13.0678C2.66506 10.8852 3.41527 8.78278 4.7155 7.02651C6.01572 5.27024 7.80755 3.93898 9.86438 3.20109C11.9212 2.46319 14.1507 2.35181 16.2708 2.88102C19.1136 3.5906 21.5581 5.40033 23.0666 7.91213C24.5751 10.4239 25.0241 13.4321 24.3148 16.2749Z" fill="#26A17B"/>
<path d="M20.3967 13.5979C20.3967 12.748 18.0638 12.0256 14.9618 11.8599V10.4959H18.8329V7.6488H8.24785V10.4959H12.119V11.8684C9.07647 12.0426 6.79883 12.748 6.79883 13.5979C6.79883 14.4477 9.07647 15.1531 12.119 15.3316V20.2353H14.9618V15.3359C18.0638 15.1701 20.3967 14.4477 20.3967 13.5979ZM13.5978 14.4477C10.2705 14.4477 7.57221 13.9336 7.57221 13.2962C7.57221 12.7565 9.50566 12.3061 12.119 12.1786V13.8316C12.5907 13.8571 13.0878 13.8741 13.5978 13.8741C14.1077 13.8741 14.5284 13.8741 14.9618 13.8401V12.1701C17.6346 12.2891 19.6361 12.748 19.6361 13.2919C19.6233 13.9293 16.925 14.4477 13.5978 14.4477Z" fill="#DEE2F7"/>
</g>
<g clip-path="url(#clip1_249_34156)">
<path d="M41.9923 16.891C41.3447 19.5022 39.9371 21.8626 37.9477 23.6736C35.9582 25.4846 33.4763 26.6648 30.8159 27.0648C28.1555 27.4647 25.4363 27.0666 23.0023 25.9207C20.5682 24.7748 18.5288 22.9326 17.1421 20.6273C15.7553 18.322 15.0835 15.6571 15.2117 12.9699C15.34 10.2827 16.2624 7.69391 17.8624 5.5311C19.4623 3.3683 21.6679 1.72869 24.2 0.819753C26.7321 -0.0891866 29.4768 -0.22661 32.0871 0.424872C35.5827 1.29734 38.5891 3.52141 40.4463 6.60871C42.3034 9.696 42.8595 13.3941 41.9923 16.891Z" fill="#F0B90B"/>
<g opacity="0.24">
<path d="M28.7981 27.1957C27.6886 27.1879 26.5842 27.0452 25.5091 26.7708C22.0193 25.8936 19.0195 23.6689 17.1668 20.5841C15.3142 17.4992 14.7598 13.8059 15.6252 10.3131C16.2764 7.70459 17.6864 5.34769 19.6768 3.54027C21.6672 1.73286 24.1487 0.556049 26.8078 0.15858C29.4668 -0.23889 32.184 0.160819 34.616 1.30719C37.0479 2.45356 39.0854 4.29514 40.471 6.59918C41.7103 8.66357 42.3792 11.02 42.4093 13.4276C42.4395 15.8352 41.8298 18.2077 40.6426 20.3024C39.4554 22.3972 37.7333 24.1392 35.6522 25.3503C33.5712 26.5614 31.2059 27.1983 28.7981 27.1957ZM28.7981 2.54956C26.3337 2.55147 23.9407 3.37728 21.9996 4.89566C20.0585 6.41404 18.6808 8.53781 18.0855 10.9293C17.6921 12.3507 17.5872 13.8365 17.7771 15.2991C17.967 16.7617 18.4478 18.1715 19.1912 19.4453C19.9345 20.7192 20.9255 21.8313 22.1055 22.7161C23.2855 23.6009 24.6307 24.2404 26.0618 24.5971C27.4929 24.9537 28.9809 25.0202 30.4382 24.7926C31.8954 24.5651 33.2923 24.048 34.5465 23.272C35.8007 22.496 36.8869 21.4767 37.7409 20.2742C38.595 19.0718 39.1996 17.7105 39.5192 16.2707C40.227 13.4278 39.7768 10.4203 38.2676 7.90934C36.7583 5.3984 34.3135 3.58971 31.4709 2.88101C30.5966 2.66322 29.6991 2.55193 28.7981 2.54956Z" fill="#DEE2F7"/>
</g>
<g opacity="0.3">
<path d="M41.5844 8.97883L15.3745 15.782C14.8333 12.4385 15.5593 9.01346 17.4105 6.17714C19.2617 3.34082 22.1048 1.29746 25.3833 0.447009C28.6618 -0.403439 32.1396 0.000247825 35.1361 1.57906C38.1326 3.15786 40.4321 5.79813 41.5844 8.98308V8.97883Z" fill="#DEE2F7"/>
</g>
<path d="M39.515 16.2749C38.986 18.3951 37.8402 20.3108 36.2224 21.7798C34.6047 23.2488 32.5876 24.205 30.4264 24.5276C28.2651 24.8502 26.0567 24.5247 24.0805 23.5921C22.1043 22.6596 20.449 21.162 19.3239 19.2887C18.1989 17.4154 17.6546 15.2505 17.7599 13.0678C17.8653 10.8852 18.6155 8.78278 19.9157 7.02651C21.2159 5.27024 23.0077 3.93898 25.0646 3.20109C27.1214 2.46319 29.3509 2.35181 31.471 2.88102C34.3138 3.5906 36.7583 5.40033 38.2668 7.91213C39.7753 10.4239 40.2243 13.4321 39.515 16.2749Z" fill="#F0B90B"/>
<path fill-rule="evenodd" clip-rule="evenodd" d="M26.0446 12.3782L29.0191 9.40368L31.9937 12.3782L33.7231 10.653L29.0106 5.94897L24.3364 10.6232L26.0446 12.3782ZM21.3618 13.5978L23.0913 11.8725L24.8165 13.5978L23.0913 15.3273L21.3618 13.5978ZM26.0361 14.8301L29.0106 17.8046L31.9852 14.8301L33.7146 16.5553L29.0106 21.2466L24.3151 16.5723L26.0361 14.8301ZM33.2047 13.5978L34.9299 11.8725L36.6594 13.5978L34.9299 15.3273L33.2047 13.5978ZM30.7698 13.5978L29.0106 15.3528L27.2599 13.5978L27.5658 13.2918L27.7188 13.1431L28.9936 11.8471L30.7698 13.5978Z" fill="#DEE2F7"/>
</g>
<g clip-path="url(#clip2_249_34156)">
<path d="M57.192 16.891C56.5444 19.5022 55.1368 21.8626 53.1474 23.6736C51.1579 25.4846 48.676 26.6648 46.0156 27.0648C43.3552 27.4647 40.636 27.0666 38.202 25.9207C35.7679 24.7748 33.7285 22.9326 32.3418 20.6273C30.955 18.322 30.2832 15.6571 30.4115 12.9699C30.5397 10.2827 31.4621 7.69391 33.0621 5.5311C34.662 3.3683 36.8676 1.72869 39.3997 0.819753C41.9318 -0.0891866 44.6766 -0.22661 47.2868 0.424872C50.7824 1.29734 53.7888 3.52141 55.646 6.60871C57.5031 9.696 58.0592 13.3941 57.192 16.891Z" fill="#F7931A"/>
<g opacity="0.24">
<path d="M44.0233 27.1957C42.9053 27.1889 41.7924 27.0462 40.7088 26.7708C37.219 25.8936 34.2192 23.6689 32.3665 20.5841C30.5139 17.4992 29.9595 13.8059 30.8249 10.3131C31.4762 7.70459 32.8861 5.34769 34.8765 3.54027C36.8669 1.73286 39.3485 0.556049 42.0075 0.15858C44.6665 -0.23889 47.3837 0.160819 49.8157 1.30719C52.2476 2.45356 54.2851 4.29514 55.6707 6.59918C56.9089 8.66172 57.5777 11.0158 57.609 13.4212C57.6402 15.8267 57.0327 18.1973 55.8486 20.2913C54.6644 22.3853 52.9459 24.1277 50.8685 25.3407C48.791 26.5536 46.4289 27.1937 44.0233 27.1957ZM43.9978 2.54956C41.5334 2.55147 39.1404 3.37728 37.1993 4.89566C35.2582 6.41404 33.8805 8.53781 33.2852 10.9292C32.6544 13.7438 33.1494 16.6935 34.6642 19.148C36.1791 21.6025 38.5938 23.3673 41.3925 24.0653C44.1911 24.7633 47.1518 24.3392 49.6419 22.8835C52.132 21.4278 53.9541 19.056 54.7189 16.2749C55.07 14.867 55.1404 13.4037 54.9259 11.9686C54.7115 10.5335 54.2164 9.15468 53.4691 7.91091C52.7217 6.66714 51.7367 5.58278 50.5702 4.71974C49.4037 3.8567 48.0786 3.2319 46.6706 2.88101C45.7963 2.66322 44.8989 2.55193 43.9978 2.54956Z" fill="#DEE2F7"/>
</g>
<g opacity="0.3">
<path d="M56.7841 8.97883L30.5742 15.782C30.033 12.4385 30.759 9.01346 32.6102 6.17714C34.4614 3.34082 37.3045 1.29746 40.583 0.447009C43.8615 -0.403439 47.3393 0.000247825 50.3358 1.57906C53.3323 3.15786 55.6318 5.79813 56.7841 8.98308V8.97883Z" fill="#DEE2F7"/>
</g>
<path d="M54.7147 16.2749C54.1857 18.3951 53.0399 20.3108 51.4221 21.7798C49.8044 23.2488 47.7873 24.205 45.6261 24.5276C43.4648 24.8502 41.2564 24.5247 39.2802 23.5921C37.304 22.6596 35.6487 21.162 34.5236 19.2887C33.3986 17.4154 32.8543 15.2505 32.9596 13.0678C33.065 10.8852 33.8152 8.78278 35.1154 7.02651C36.4156 5.27024 38.2074 3.93898 40.2643 3.20109C42.3211 2.46319 44.5506 2.35181 46.6707 2.88102C49.5135 3.5906 51.958 5.40033 53.4665 7.91213C54.975 10.4239 55.424 13.4321 54.7147 16.2749Z" fill="#F7931A"/>
<path d="M49.4923 12.102C49.7303 10.4958 48.5149 9.6289 46.8535 9.05524L47.3974 6.87533L46.0801 6.54388L45.5532 8.66855L44.4993 8.41784L45.0262 6.29317L43.7132 5.94897L43.1735 8.12464L42.3237 7.92492L40.5092 7.47024L40.1735 8.88102C40.1735 8.88102 41.1508 9.10623 41.1296 9.11898C41.3119 9.14342 41.4777 9.23773 41.5918 9.38201C41.706 9.52629 41.7597 9.70927 41.7415 9.89236L40.267 15.8414C40.2481 15.9018 40.2175 15.9578 40.177 16.0063C40.1364 16.0548 40.0867 16.0948 40.0306 16.124C39.9745 16.1532 39.9132 16.1711 39.8503 16.1765C39.7873 16.182 39.7238 16.175 39.6636 16.1559L38.7075 15.9137L38.0488 17.4477L39.7486 17.8726L40.6877 18.1191L40.1735 20.3245L41.4865 20.6559L42.0262 18.476C42.3832 18.5738 42.7316 18.663 43.0758 18.748L42.5361 20.9194L43.8534 21.2508L44.3973 19.0497C46.641 19.4746 48.328 19.3046 49.0376 17.2607C49.6113 15.6162 49.0121 14.6644 47.8308 14.0482C48.6807 13.8485 49.3351 13.2791 49.5305 12.102H49.4923ZM46.488 16.3514C46.0631 17.9958 43.3265 17.1077 42.4384 16.8868L43.148 13.9632C44.0489 14.1884 46.9129 14.6304 46.488 16.3471V16.3514ZM46.9129 12.102C46.5433 13.602 44.2529 12.8414 43.5135 12.6544L44.1721 10.0071C44.9115 10.1941 47.3039 10.5425 46.9172 12.102H46.9129Z" fill="#DEE2F7"/>
</g>
<g clip-path="url(#clip3_249_34156)">
<path d="M72.3709 16.8868C71.7229 19.4988 70.3145 21.8598 68.3239 23.6708C66.3333 25.4819 63.8501 26.6615 61.1887 27.0604C58.5273 27.4593 55.8073 27.0596 53.3732 25.9117C50.9392 24.7639 48.9004 22.9196 47.5151 20.6124C46.1298 18.3051 45.4603 15.6387 45.5913 12.9508C45.7223 10.2628 46.648 7.67417 48.2511 5.5126C49.8542 3.35103 52.0627 1.71376 54.5968 0.808074C57.131 -0.0976095 59.8769 -0.230969 62.487 0.424881C65.9777 1.30204 68.9783 3.5274 70.831 6.61318C72.6838 9.69896 73.2375 13.3934 72.3709 16.8868Z" fill="#6E7CCA"/>
<g opacity="0.24">
<path d="M72.3709 16.8868C71.6389 19.8231 69.9485 22.4313 67.5671 24.2986C65.1857 26.1658 62.2495 27.1853 59.2234 27.1957C58.1054 27.1892 56.9924 27.0465 55.9089 26.7708C53.3062 26.1157 50.9555 24.7051 49.153 22.7165C47.3504 20.728 46.1767 18.2505 45.7796 15.5961C45.3824 12.9417 45.7797 10.2291 46.9214 7.80013C48.063 5.37111 49.8979 3.33426 52.195 1.94615C54.4996 0.56856 57.1605 -0.0959322 59.8422 0.036437C62.5239 0.168806 65.1063 1.09211 67.2641 2.68997C69.4218 4.28782 71.0582 6.4887 71.967 9.01517C72.8758 11.5416 73.0163 14.2806 72.3709 16.8868Z" fill="#DEE2F7"/>
</g>
<g opacity="0.3">
<path d="M71.9843 8.97881L45.7744 15.7777C45.2332 12.4343 45.9592 9.00918 47.8104 6.17286C49.6616 3.33654 52.5047 1.29319 55.7832 0.442737C59.0617 -0.407711 62.5395 -0.00402464 65.536 1.57478C68.5325 3.15359 70.832 5.79386 71.9843 8.97881Z" fill="#DEE2F7"/>
</g>
<path d="M69.9147 16.2707C69.3867 18.3912 68.2417 20.3075 66.6245 21.7773C65.0073 23.247 62.9906 24.2042 60.8294 24.5277C58.6682 24.8512 56.4596 24.5265 54.4829 23.5947C52.5062 22.6629 50.8503 21.1659 49.7245 19.2929C48.5987 17.42 48.0536 15.2552 48.1582 13.0724C48.2627 10.8896 49.0123 8.78691 50.312 7.03014C51.6117 5.27338 53.4032 3.9415 55.4599 3.20295C57.5166 2.4644 59.7461 2.35236 61.8665 2.881C64.7091 3.5897 67.1538 5.3984 68.6631 7.90933C70.1724 10.4203 70.6226 13.4278 69.9147 16.2707Z" fill="#6E7CCA"/>
<path d="M59.1978 16.5723L59.3082 16.6786L64.263 13.7508L59.3167 5.52405L59.2063 5.88949L59.1978 16.5723Z" fill="#DEE2F7"/>
<path d="M59.3169 16.6786V5.52405L54.3579 13.7508L59.3169 16.6786Z" fill="#B0E7FF"/>
<path d="M59.2534 21.4931L59.3172 21.6716L64.2974 14.6899L59.3172 17.6177L59.2534 17.69V21.4931Z" fill="#DEE2F7"/>
<path d="M54.3579 14.6899L59.3169 21.6716V17.6177L54.3579 14.6899Z" fill="#B0E7FF"/>
<path d="M59.3169 11.4987V16.6786L64.2716 13.7508L59.3169 11.4987Z" fill="#DEE2F7"/>
<path d="M59.3169 11.4987L54.3579 13.7508L59.3169 16.6786V11.4987Z" fill="#C8F7F7"/>
</g>
<g clip-path="url(#clip4_249_34156)">
<path d="M87.5706 16.8868C86.9226 19.4988 85.5142 21.8598 83.5236 23.6708C81.533 25.4819 79.0498 26.6615 76.3884 27.0604C73.727 27.4593 71.007 27.0596 68.573 25.9117C66.1389 24.7639 64.1001 22.9196 62.7148 20.6124C61.3295 18.3051 60.66 15.6387 60.791 12.9508C60.922 10.2628 61.8477 7.67417 63.4508 5.5126C65.0539 3.35103 67.2624 1.71376 69.7965 0.808074C72.3307 -0.0976095 75.0766 -0.230969 77.6867 0.424881C81.1774 1.30204 84.178 3.5274 86.0307 6.61318C87.8835 9.69896 88.4372 13.3934 87.5706 16.8868Z" fill="#000414"/>
<g opacity="0.24">
<path d="M74.3979 27.1957C72.3345 27.1923 70.2989 26.7194 68.4454 25.8127C66.5918 24.9061 64.9689 23.5895 63.6996 21.9627C62.4302 20.3359 61.5478 18.4416 61.119 16.4232C60.6903 14.4048 60.7265 12.3154 61.225 10.3131C62.1012 6.82153 64.3262 3.81992 67.4121 1.96631C70.498 0.112706 74.1929 -0.441624 77.6869 0.424855C80.8886 1.24438 83.6823 3.20191 85.5457 5.9315C87.409 8.66109 88.2145 11.9759 87.8115 15.2562C87.4085 18.5365 85.8246 21.5577 83.3559 23.7551C80.8873 25.9525 77.7028 27.1755 74.3979 27.1957ZM74.3979 2.54952C71.9335 2.55144 69.5405 3.37724 67.5994 4.89562C65.6583 6.414 64.2806 8.53777 63.6853 10.9292C63.0817 13.7335 63.5923 16.6626 65.1093 19.0972C66.6263 21.5317 69.0307 23.2808 71.8141 23.9746C74.5974 24.6684 77.5415 24.2524 80.0237 22.8147C82.5059 21.3769 84.3316 19.0302 85.1147 16.2706C85.8227 13.4284 85.3731 10.4213 83.8647 7.91051C82.3563 5.39968 79.9126 3.5906 77.0707 2.88097C76.1964 2.66319 75.299 2.55189 74.3979 2.54952Z" fill="#DEE2F7"/>
</g>
<g opacity="0.3">
<path d="M87.184 8.97881L60.9741 15.7777C60.4329 12.4343 61.1589 9.00918 63.0101 6.17286C64.8613 3.33654 67.7044 1.29319 70.9829 0.442737C74.2614 -0.407711 77.7392 -0.00402464 80.7357 1.57478C83.7322 3.15359 86.0317 5.79386 87.184 8.97881Z" fill="#DEE2F7"/>
</g>
<path d="M85.1146 16.2707C84.5864 18.3913 83.4411 20.3076 81.8236 21.7772C80.2062 23.2469 78.1892 24.2038 76.0278 24.527C73.8664 24.8501 71.6577 24.5251 69.6811 23.5928C67.7045 22.6606 66.0488 21.1631 64.9233 19.2898C63.7979 17.4164 63.2533 15.2514 63.3585 13.0685C63.4637 10.8856 64.2139 8.78295 65.5142 7.02647C66.8145 5.26999 68.6065 3.93861 70.6636 3.20071C72.7206 2.46282 74.9503 2.35156 77.0707 2.88102C79.9125 3.59066 82.3562 5.39974 83.8646 7.91056C85.373 10.4214 85.8226 13.4285 85.1146 16.2707Z" fill="#000414"/>
<path d="M69.9527 16.3217C69.9921 16.2815 70.039 16.2496 70.0908 16.2277C70.1426 16.2058 70.1982 16.1944 70.2544 16.1942H80.7928C80.8518 16.1975 80.9071 16.2239 80.9469 16.2676C80.9866 16.3113 81.0076 16.3689 81.0053 16.4279C81.0016 16.4813 80.9807 16.532 80.9458 16.5724L78.8636 18.6503C78.8242 18.6905 78.7773 18.7224 78.7255 18.7443C78.6737 18.7662 78.6181 18.7776 78.5619 18.7778H68.0235C67.978 18.7807 67.9326 18.7692 67.894 18.7448C67.8554 18.7204 67.8254 18.6844 67.8085 18.642C67.7915 18.5996 67.7884 18.5529 67.7995 18.5086C67.8107 18.4643 67.8355 18.4247 67.8706 18.3954L69.9527 16.3217Z" fill="url(#paint0_linear_249_34156)"/>
<path d="M69.9529 8.54533C69.9922 8.50518 70.0392 8.47323 70.091 8.45135C70.1427 8.42947 70.1984 8.41808 70.2546 8.41785H80.7929C80.8216 8.41782 80.8499 8.42359 80.8763 8.43479C80.9026 8.446 80.9264 8.46241 80.9463 8.48305C80.9661 8.50369 80.9816 8.52813 80.9917 8.55489C81.0019 8.58166 81.0065 8.6102 81.0054 8.63881C81.0049 8.69408 80.9836 8.74715 80.9459 8.78754L78.8637 10.874C78.8244 10.9141 78.7774 10.9461 78.7257 10.9679C78.6739 10.9898 78.6183 11.0012 78.562 11.0014H68.0237C67.9647 10.9981 67.9093 10.9718 67.8696 10.9281C67.8299 10.8844 67.8089 10.8268 67.8112 10.7677C67.8148 10.7144 67.8357 10.6637 67.8707 10.6233L69.9529 8.54533Z" fill="url(#paint1_linear_249_34156)"/>
<path d="M78.8637 12.408C78.8244 12.3678 78.7774 12.3359 78.7257 12.314C78.6739 12.2921 78.6182 12.2808 78.562 12.2805H68.0237C67.9647 12.2838 67.9093 12.3102 67.8696 12.3539C67.8299 12.3976 67.8089 12.4552 67.8112 12.5142C67.8148 12.5676 67.8357 12.6183 67.8707 12.6587L69.9529 14.7324C69.9922 14.7725 70.0392 14.8045 70.091 14.8264C70.1427 14.8482 70.1984 14.8596 70.2546 14.8599H80.7929C80.8214 14.8593 80.8495 14.8532 80.8755 14.8418C80.9016 14.8303 80.9252 14.8139 80.9449 14.7934C80.9647 14.7729 80.9802 14.7487 80.9905 14.7222C81.0009 14.6957 81.006 14.6674 81.0054 14.6389C81.0049 14.5836 80.9836 14.5306 80.9459 14.4902L78.8637 12.408Z" fill="url(#paint2_linear_249_34156)"/>
</g>
<defs>
<linearGradient id="paint0_linear_249_34156" x1="80.3721" y1="8.73238" x2="72.2771" y2="20.6008" gradientUnits="userSpaceOnUse">
<stop stop-color="#00FFA3"/>
<stop offset="1" stop-color="#DC1FFF"/>
</linearGradient>
<linearGradient id="paint1_linear_249_34156" x1="76.7561" y1="6.26343" x2="68.6611" y2="18.1318" gradientUnits="userSpaceOnUse">
<stop stop-color="#00FFA3"/>
<stop offset="1" stop-color="#DC1FFF"/>
</linearGradient>
<linearGradient id="paint2_linear_249_34156" x1="78.5578" y1="7.49152" x2="70.4628" y2="19.3599" gradientUnits="userSpaceOnUse">
<stop stop-color="#00FFA3"/>
<stop offset="1" stop-color="#DC1FFF"/>
</linearGradient>
<clipPath id="clip0_249_34156">
<rect width="27.2" height="27.2" fill="white"/>
</clipPath>
<clipPath id="clip1_249_34156">
<rect width="27.2" height="27.2" fill="white" transform="translate(15.2002)"/>
</clipPath>
<clipPath id="clip2_249_34156">
<rect width="27.2" height="27.2" fill="white" transform="translate(30.3999)"/>
</clipPath>
<clipPath id="clip3_249_34156">
<rect width="27.2" height="27.1958" fill="white" transform="translate(45.6001)"/>
</clipPath>
<clipPath id="clip4_249_34156">
<rect width="27.2" height="27.1958" fill="white" transform="translate(60.7998)"/>
</clipPath>
</defs>
</svg>
