<svg width="16" height="16" viewBox="0 0 16 16" fill="none" xmlns="http://www.w3.org/2000/svg">
<path opacity="0.2" d="M8.5 8L3.5 13V3L8.5 8Z" fill="#DEE2F7"/>
<path d="M8.85375 7.64625L3.85375 2.64625C3.78382 2.57624 3.6947 2.52856 3.59765 2.50923C3.50061 2.48991 3.40002 2.49981 3.30861 2.53769C3.21719 2.57556 3.13908 2.63971 3.08414 2.72201C3.0292 2.8043 2.99992 2.90105 3 3V13C2.99992 13.0989 3.0292 13.1957 3.08414 13.278C3.13908 13.3603 3.21719 13.4244 3.30861 13.4623C3.40002 13.5002 3.50061 13.5101 3.59765 13.4908C3.6947 13.4714 3.78382 13.4238 3.85375 13.3537L8.85375 8.35375C8.90024 8.30731 8.93712 8.25217 8.96228 8.19147C8.98744 8.13077 9.00039 8.0657 9.00039 8C9.00039 7.93429 8.98744 7.86923 8.96228 7.80853C8.93712 7.74783 8.90024 7.69268 8.85375 7.64625ZM4 11.7931V4.20687L7.79313 8L4 11.7931ZM13.8538 8.35562L8.85375 13.3556C8.75993 13.4494 8.63268 13.5022 8.5 13.5022C8.36732 13.5022 8.24007 13.4494 8.14625 13.3556C8.05243 13.2618 7.99972 13.1346 7.99972 13.0019C7.99972 12.8692 8.05243 12.7419 8.14625 12.6481L12.7931 8L8.14625 3.35375C8.05243 3.25993 7.99972 3.13268 7.99972 3C7.99972 2.86732 8.05243 2.74007 8.14625 2.64625C8.24007 2.55243 8.36732 2.49972 8.5 2.49972C8.63268 2.49972 8.75993 2.55243 8.85375 2.64625L13.8538 7.64625C13.9002 7.69268 13.9371 7.74783 13.9623 7.80853C13.9874 7.86923 14.0004 7.93429 14.0004 8C14.0004 8.0657 13.9874 8.13077 13.9623 8.19147C13.9371 8.25217 13.9002 8.30731 13.8538 8.35375V8.35562Z" fill="#DEE2F7"/>
</svg>
