<svg width="28" height="28" viewBox="0 0 28 28" fill="none" xmlns="http://www.w3.org/2000/svg">
<path d="M0 14C0 6.26801 6.26801 0 14 0C21.732 0 28 6.26801 28 14C28 21.732 21.732 28 14 28C6.26801 28 0 21.732 0 14Z" fill="#DEE2F7" fill-opacity="0.16"/>
<g clip-path="url(#clip0_835_4488)">
<path opacity="0.2" d="M19 15H9C8.72386 15 8.5 15.2239 8.5 15.5V18.5C8.5 18.7761 8.72386 19 9 19H19C19.2761 19 19.5 18.7761 19.5 18.5V15.5C19.5 15.2239 19.2761 15 19 15Z" fill="#DEE2F7"/>
<path opacity="0.2" d="M19 9H9C8.72386 9 8.5 9.22386 8.5 9.5V12.5C8.5 12.7761 8.72386 13 9 13H19C19.2761 13 19.5 12.7761 19.5 12.5V9.5C19.5 9.22386 19.2761 9 19 9Z" fill="#DEE2F7"/>
<path d="M19 15H9C8.72386 15 8.5 15.2239 8.5 15.5V18.5C8.5 18.7761 8.72386 19 9 19H19C19.2761 19 19.5 18.7761 19.5 18.5V15.5C19.5 15.2239 19.2761 15 19 15Z" stroke="#DEE2F7" stroke-linecap="round" stroke-linejoin="round"/>
<path d="M19 9H9C8.72386 9 8.5 9.22386 8.5 9.5V12.5C8.5 12.7761 8.72386 13 9 13H19C19.2761 13 19.5 12.7761 19.5 12.5V9.5C19.5 9.22386 19.2761 9 19 9Z" stroke="#DEE2F7" stroke-linecap="round" stroke-linejoin="round"/>
<path d="M17.25 11.75C17.6642 11.75 18 11.4142 18 11C18 10.5858 17.6642 10.25 17.25 10.25C16.8358 10.25 16.5 10.5858 16.5 11C16.5 11.4142 16.8358 11.75 17.25 11.75Z" fill="#DEE2F7"/>
<path d="M17.25 17.75C17.6642 17.75 18 17.4142 18 17C18 16.5858 17.6642 16.25 17.25 16.25C16.8358 16.25 16.5 16.5858 16.5 17C16.5 17.4142 16.8358 17.75 17.25 17.75Z" fill="#DEE2F7"/>
</g>
<defs>
<clipPath id="clip0_835_4488">
<rect width="16" height="16" fill="white" transform="translate(6 6)"/>
</clipPath>
</defs>
</svg>
