<svg width="4" height="96" viewBox="0 0 4 96" fill="none" xmlns="http://www.w3.org/2000/svg">
<g clip-path="url(#clip0_835_4845)">
<rect width="4" height="96" fill="#DEE2F7"/>
<path d="M-139.421 47.9999L2.00043 -93.4215" stroke="#141F52" stroke-width="2" stroke-linecap="round"/>
<path d="M-133.765 53.6567L7.65668 -87.7646" stroke="#141F52" stroke-width="2" stroke-linecap="round"/>
<path d="M-128.107 59.3136L13.3139 -82.1078" stroke="#141F52" stroke-width="2" stroke-linecap="round"/>
<path d="M-122.451 64.9705L18.9702 -76.4509" stroke="#141F52" stroke-width="2" stroke-linecap="round"/>
<path d="M-116.794 70.6273L24.6274 -70.7941" stroke="#141F52" stroke-width="2" stroke-linecap="round"/>
<path d="M-111.137 76.2842L30.2846 -65.1372" stroke="#141F52" stroke-width="2" stroke-linecap="round"/>
<path d="M-105.48 81.941L35.9409 -59.4803" stroke="#141F52" stroke-width="2" stroke-linecap="round"/>
<path d="M-99.8232 87.5979L41.5981 -53.8235" stroke="#141F52" stroke-width="2" stroke-linecap="round"/>
<path d="M-94.166 93.2548L47.2553 -48.1666" stroke="#141F52" stroke-width="2" stroke-linecap="round"/>
<path d="M-88.5098 98.9116L52.9116 -42.5098" stroke="#141F52" stroke-width="2" stroke-linecap="round"/>
<path d="M-82.8525 104.568L58.5688 -36.8529" stroke="#141F52" stroke-width="2" stroke-linecap="round"/>
<path d="M-77.1963 110.225L64.225 -31.196" stroke="#141F52" stroke-width="2" stroke-linecap="round"/>
<path d="M-71.5391 115.882L69.8823 -25.5392" stroke="#141F52" stroke-width="2" stroke-linecap="round"/>
<path d="M-65.8818 121.539L75.5395 -19.8823" stroke="#141F52" stroke-width="2" stroke-linecap="round"/>
<path d="M-60.2256 127.196L81.1957 -14.2254" stroke="#141F52" stroke-width="2" stroke-linecap="round"/>
<path d="M-54.5684 132.853L86.853 -8.56859" stroke="#141F52" stroke-width="2" stroke-linecap="round"/>
<path d="M-48.9121 138.51L92.5092 -2.91173" stroke="#141F52" stroke-width="2" stroke-linecap="round"/>
<path d="M-43.2549 144.166L98.1664 2.74501" stroke="#141F52" stroke-width="2" stroke-linecap="round"/>
<path d="M-37.5977 149.823L103.824 8.40187" stroke="#141F52" stroke-width="2" stroke-linecap="round"/>
<path d="M-31.9414 155.48L109.48 14.0587" stroke="#141F52" stroke-width="2" stroke-linecap="round"/>
<path d="M-26.2842 161.137L115.137 19.7156" stroke="#141F52" stroke-width="2" stroke-linecap="round"/>
<path d="M-20.627 166.794L120.794 25.3725" stroke="#141F52" stroke-width="2" stroke-linecap="round"/>
<path d="M-14.9707 172.451L126.451 31.0293" stroke="#141F52" stroke-width="2" stroke-linecap="round"/>
<path d="M-9.31348 178.108L132.108 36.6862" stroke="#141F52" stroke-width="2" stroke-linecap="round"/>
<path d="M-3.65723 183.764L137.764 42.343" stroke="#141F52" stroke-width="2" stroke-linecap="round"/>
<path d="M2 189.421L143.421 47.9999" stroke="#141F52" stroke-width="2" stroke-linecap="round"/>
</g>
<defs>
<clipPath id="clip0_835_4845">
<rect width="4" height="96" fill="white"/>
</clipPath>
</defs>
</svg>
