<svg width="24" height="17" viewBox="0 0 24 17" fill="none" xmlns="http://www.w3.org/2000/svg">
<path d="M6.33055 4.69911C9.46165 1.6335 14.5382 1.6335 17.6693 4.69911L18.0461 5.06805C18.2027 5.22135 18.2027 5.46985 18.0461 5.62315L16.7571 6.88525C16.6788 6.9619 16.5519 6.9619 16.4736 6.88525L15.955 6.37755C13.7707 4.23888 10.2292 4.23888 8.0448 6.37755L7.48945 6.92125C7.4112 6.9979 7.2843 6.9979 7.206 6.92125L5.91695 5.65915C5.76035 5.50585 5.76035 5.25735 5.91695 5.10405L6.33055 4.69911ZM20.3352 7.3093L21.4825 8.43255C21.6391 8.58585 21.6391 8.83435 21.4825 8.98765L16.3094 14.0527C16.1528 14.206 15.899 14.206 15.7424 14.0527L12.0708 10.4579C12.0317 10.4196 11.9682 10.4196 11.9291 10.4579L8.25755 14.0527C8.101 14.206 7.84715 14.206 7.6906 14.0527L2.51732 8.9876C2.36076 8.8343 2.36076 8.5858 2.51732 8.4325L3.6646 7.3092C3.82115 7.15595 4.07498 7.15595 4.23154 7.3092L7.9032 10.9041C7.9423 10.9424 8.00575 10.9424 8.0449 10.9041L11.7164 7.3092C11.8729 7.15595 12.1268 7.15595 12.2833 7.3092L15.955 10.9041C15.9941 10.9424 16.0576 10.9424 16.0967 10.9041L19.7683 7.3093C19.9249 7.156 20.1787 7.156 20.3352 7.3093Z" fill="#3396FF"/>
</svg>
